<svg xmlns="http://www.w3.org/2000/svg" viewBox="0 0 512 512" width="100%" height="100%">
  <defs>
    <linearGradient id="grad1" x1="0%" y1="0%" x2="100%" y2="100%">
      <stop offset="0%" style="stop-color:#007AFF;stop-opacity:1" />
      <stop offset="100%" style="stop-color:#AF52DE;stop-opacity:1" />
    </linearGradient>
    <filter id="shadow" x="-10%" y="-10%" width="120%" height="120%">
      <feDropShadow dx="0" dy="8" stdDeviation="12" flood-color="#000000" flood-opacity="0.15" />
    </filter>
  </defs>
  <!-- Background Round Rect -->
  <rect x="32" y="32" width="448" height="448" rx="100" fill="url(#grad1)" />
  
  <!-- Icon Graphics (Styled open box with stars) -->
  <g filter="url(#shadow)" fill="none" stroke="#ffffff" stroke-width="24" stroke-linecap="round" stroke-linejoin="round">
    <!-- Box Lid -->
    <path d="M120 200 L256 120 L392 200 L256 280 Z" fill="rgba(255, 255, 255, 0.1)" />
    <!-- Box Body -->
    <path d="M120 200 L120 340 C120 370, 140 390, 170 392 L256 400 L342 392 C372 390, 392 370, 392 340 L392 200" />
    <!-- Front Edge -->
    <path d="M256 280 L256 400" />
    
    <!-- Rising Spark/Star -->
    <path d="M256 190 L262 208 L280 208 L266 218 L270 236 L256 226 L242 236 L246 218 L232 208 L250 208 Z" fill="#ffffff" stroke="none" />
  </g>
</svg>
